<?xml version="1.0" encoding="utf-8"?>
<svg width="300px" height="157px" viewBox="0 0 300 157" version="1.1" xmlns:xlink="http://www.w3.org/1999/xlink" xmlns="http://www.w3.org/2000/svg">
  <defs>
    <rect width="300" height="157" id="artboard_1" />
    <clipPath id="clip_1">
      <use xlink:href="#artboard_1" clip-rule="evenodd" />
    </clipPath>
  </defs>
  <g id="logo-nav" clip-path="url(#clip_1)">
    <use xlink:href="#artboard_1" stroke="none" fill="#181818" fill-opacity="0" />
    <g id="TM" fill="#5050E0" transform="translate(72.000244 24)">
      <path d="M33.4688 78.5L33.4688 40.9063L44.0156 40.9063L44.0156 50Q44.0156 53.4688 45.3516 54.9453Q46.6875 56.4219 48.7969 56.4219Q50.9531 56.4219 52.2891 54.9453Q53.625 53.4688 53.625 50L53.625 31.2969L3.84375 31.25L3.84375 50Q3.84375 53.4688 5.17969 54.9453Q6.51563 56.4219 8.625 56.4219Q10.7813 56.4219 12.1172 54.9453Q13.4531 53.4688 13.4531 50L13.4531 40.9063L23.8594 40.9063L23.8594 78.5L17.4375 78.5Q13.9688 78.5 12.4922 79.8359Q11.0156 81.1719 11.0156 83.2813Q11.0156 85.4375 12.4922 86.7734Q13.9688 88.1094 17.4375 88.1094L39.9375 88.1094Q43.4063 88.1094 44.8828 86.7734Q46.3594 85.4375 46.3594 83.3281Q46.3594 81.1719 44.8828 79.8359Q43.4063 78.5 39.9375 78.5L33.4688 78.5ZM71.3906 78.5L71.3906 49.8594L82.5469 74.6094L90.8906 74.6094L101.906 49.8594L101.906 78.5L98.3906 78.5Q94.9688 78.5 93.4922 79.8359Q92.0156 81.1719 92.0156 83.2813Q92.0156 85.4375 93.4922 86.7734Q94.9688 88.1094 98.3906 88.1094L111.047 88.1094Q114.516 88.1094 115.992 86.7734Q117.469 85.4375 117.469 83.3281Q117.469 81.2188 116.016 79.8594Q114.562 78.5 111.516 78.5L111.516 40.9063Q114 40.6719 115.313 39.3594Q116.625 38.0469 116.625 36.0781Q116.625 33.9219 115.148 32.6094Q113.672 31.2969 110.203 31.2969L99.5625 31.25L86.7188 60.2188L73.6406 31.2969L63.0938 31.25Q59.625 31.25 58.1484 32.5859Q56.6719 33.9219 56.6719 36.0781Q56.6719 38.0469 57.9609 39.3594Q59.25 40.6719 61.7813 40.9063L61.7813 78.5Q58.7344 78.5 57.2813 79.8359Q55.8281 81.1719 55.8281 83.2813Q55.8281 85.4375 57.3047 86.7734Q58.7813 88.1094 62.25 88.1094L74.8594 88.1094Q78.3281 88.1094 79.8047 86.7734Q81.2813 85.4375 81.2813 83.3281Q81.2813 81.1719 79.8047 79.8359Q78.3281 78.5 74.8594 78.5L71.3906 78.5Z" />
    </g>
    <g id="" fill="#5050E0" transform="translate(188.00024 37)">
      <path d="M13.3594 71.3398L36.457 21.5586Q37.3008 19.7305 37.3008 18.7813Q37.3008 17.4453 36.2461 16.4082Q35.1914 15.3711 33.7148 15.3711Q32.4492 15.3711 31.5 16.1094Q30.832 16.6719 29.9531 18.5352L6.78516 68.2813Q5.94141 70.1094 5.94141 71.0586Q5.94141 72.3945 7.01367 73.4492Q8.08594 74.5039 9.5625 74.5039Q10.8633 74.5039 11.7773 73.7656Q12.4805 73.2031 13.3594 71.3398ZM49.0781 32.7383L72.4219 45.6758L49.0781 58.6133Q47.3203 59.5977 46.7402 60.3711Q46.1602 61.1445 46.1602 62.3398Q46.1602 63.8867 47.25 64.9766Q48.3398 66.0664 49.8164 66.0664Q50.7305 66.0664 52.6289 65.0117L87.3984 45.6758L52.6289 26.3398Q50.7305 25.3203 49.8164 25.3203Q48.3398 25.3203 47.25 26.4102Q46.1602 27.5 46.1602 29.0117Q46.1602 30.207 46.7402 30.9805Q47.3203 31.7539 49.0781 32.7383Z" />
    </g>
    <g id="" fill="#5050E0" transform="translate(32.000244 37)">
      <path d="M14.0625 45.6758L37.4063 58.6133Q39.1641 59.5977 39.7441 60.3711Q40.3242 61.1445 40.3242 62.3398Q40.3242 63.8516 39.2344 64.959Q38.1445 66.0664 36.7031 66.0664Q35.7539 66.0664 33.8555 65.0117L-0.914063 45.6758L33.8555 26.3398Q35.7539 25.3203 36.668 25.3203Q38.1445 25.3203 39.2344 26.4102Q40.3242 27.5 40.3242 29.0117Q40.3242 30.207 39.7441 30.9805Q39.1641 31.7539 37.4063 32.7383L14.0625 45.6758Z" />
    </g>
  </g>
</svg>